{"title":"Free Fall 2014 HDRIP x264 AC3 TiTAN","uid":11257815,"size":911046214,"categoryP":"video","categoryS":"movies","magnet":"?xt=urn:btih:4cf97b8d4d192cbc2eca1ca03efd5be5bd570377&amp;dn=Free+Fall+2014+HDRIP+x264+AC3+TiTAN&amp;tr=udp%3A%2F%2Ftracker.openbittorrent.com%3A80&amp;tr=udp%3A%2F%2Fopen.demonii.com%3A1337&amp;tr=udp%3A%2F%2Ftracker.coppersurfer.tk%3A6969&amp;tr=udp%3A%2F%2Fexodus.desync.com%3A6969","seeders":4,"leechers":1,"uploader":"xxxlavalxxx","files":-1,"time":1413923955,"description":"[IMG]http://i.imgur.com/P57EJKa.jpg[/IMG]\n\n &lt;a href=&quot;\nhttp://www.imdb.com/title/tt3259178/&quot; rel=&quot;nofollow&quot; target=&quot;_NEW&quot;&gt;\nhttp://www.imdb.com/title/tt3259178/&lt;/a&gt;\n\n\nWhen the sudden and shocking death of a coworker sends everyone reeling at Gault Capital, JANE, uncovers a very dangerous secret. Her boss, charismatic billionaire Thaddeus Gault, is ... See full summary Â»\n\nDirector: Malek Akkad\nWriters: Dwayne Alexander Smith, Dwayne Alexander Smith\nStars: D.B. Sweeney, Sarah Butler, Malcolm McDowell \nGenres: Action | Drama | Thriller\nCountry: USA\nLanguage: English\n\n\nSource: 1080p Web DL\n\nGeneral\n\nFormat                                   : Matroska\nFormat version                           : Version 2\nFile size                                : 869 MiB\nDuration                                 : 1h 29mn\nOverall bit rate mode                    : Variable\nOverall bit rate                         : 1 354 Kbps\nEncoded date                             : UTC 2014-10-21 17:10:27\nWriting application                      : mkvmerge v7.2.0 ('On Every Street')                         \n\n\nVideo\nID                                       : 1\nFormat                                   : AVC\nFormat/Info                              : Advanced Video Codec\nFormat profile                           : &lt;a class=&quot;__cf_email__&quot; href=&quot;/cdn-cgi/l/email-protection&quot; data-cfemail=&quot;ca82a3ada28a86fee4fb&quot;&gt;[email&amp;#160;protected]&lt;/a&gt;&lt;script cf-hash='f9e31' type=&quot;text/javascript&quot;&gt;\n/* &lt;![CDATA[ */!function(){try{var t=&quot;currentScript&quot;in document?document.currentScript:function(){for(var t=document.getElementsByTagName(&quot;script&quot;),e=t.length;e--;)if(t[e].getAttribute(&quot;cf-hash&quot;))return t[e]}();if(t&amp;&amp;t.previousSibling){var e,r,n,i,c=t.previousSibling,a=c.getAttribute(&quot;data-cfemail&quot;);if(a){for(e=&quot;&quot;,r=parseInt(a.substr(0,2),16),n=2;a.length-n;n+=2)i=parseInt(a.substr(n,2),16)^r,e+=String.fromCharCode(i);e=document.createTextNode(e),c.parentNode.replaceChild(e,c)}}}catch(u){}}();/* ]]&gt; */&lt;/script&gt;\nFormat settings, CABAC                   : Yes\nFormat settings, ReFrames                : 3 frames\nCodec ID                                 : V_MPEG4/ISO/AVC\nDuration                                 : 1h 29mn\nBit rate mode                            : Variable\nBit rate                                 : 943 Kbps\nMaximum bit rate                         : 40.0 Mbps\nWidth                                    : 720 pixels\nHeight                                   : 304 pixels\nDisplay aspect ratio                     : 2.35:1\nFrame rate mode                          : Constant\nFrame rate                               : 23.976 fps\nColor space                              : YUV\nChroma subsampling                       : 4:2:0\nBit depth                                : 8 bits\nScan type                                : Progressive\nBits/(Pixel*Frame)                       : 0.180\nStream size                              : 605 MiB (70%)\nColor primaries                          : BT.709\nTransfer characteristics                 : BT.709\nMatrix coefficients                      : BT.709\n\nAudio\nID                                       : 2\nFormat                                   : AC-3\nFormat/Info                              : Audio Coding 3\nMode extension                           : CM (complete main)\nFormat settings, Endianness              : Big\nCodec ID                                 : A_AC3\nDuration                                 : 1h 29mn\nBit rate mode                            : Constant\nBit rate                                 : 384 Kbps\nChannel(s)                               : 6 channels\nChannel positions                        : Front: L C R, Side: L R, LFE\nSampling rate                            : 48.0 KHz\nBit depth                                : 16 bits\nCompression mode                         : Lossy\nStream size                              : 246 MiB (28%)\nLanguage                                 : English\nDefault                                  : Yes\nForced                                   : No\n\n\n &lt;a href=&quot;\nhttp://i.imgur.com/uEHyS84.jpg&quot; rel=&quot;nofollow&quot; target=&quot;_NEW&quot;&gt;\nhttp://i.imgur.com/uEHyS84.jpg&lt;/a&gt; &lt;a href=&quot;\nhttp://i.imgur.com/5L0APgA.jpg&quot; rel=&quot;nofollow&quot; target=&quot;_NEW&quot;&gt;\nhttp://i.imgur.com/5L0APgA.jpg&lt;/a&gt; &lt;a href=&quot;\nhttp://i.imgur.com/fxy6bBj.jpg&quot; rel=&quot;nofollow&quot; target=&quot;_NEW&quot;&gt;\nhttp://i.imgur.com/fxy6bBj.jpg&lt;/a&gt; &lt;a href=&quot;\nhttp://i.imgur.com/EZLNF2B.jpg&quot; rel=&quot;nofollow&quot; target=&quot;_NEW&quot;&gt;\nhttp://i.imgur.com/EZLNF2B.jpg&lt;/a&gt;","torrent":{"xt":"urn:btih:4cf97b8d4d192cbc2eca1ca03efd5be5bd570377","amp;dn":"Free+Fall+2014+HDRIP+x264+AC3+TiTAN","amp;tr":["udp%3A%2F%2Ftracker.openbittorrent.com%3A80","udp%3A%2F%2Fopen.demonii.com%3A1337","udp%3A%2F%2Ftracker.coppersurfer.tk%3A6969","udp%3A%2F%2Fexodus.desync.com%3A6969"],"infoHash":"4cf97b8d4d192cbc2eca1ca03efd5be5bd570377","infoHashBuffer":{"type":"Buffer","data":[76,249,123,141,77,25,44,188,46,202,28,160,62,253,91,229,189,87,3,119]},"announce":[],"urlList":[]}}